<svg width="136" height="37" viewBox="0 0 136 37" fill="none" xmlns="http://www.w3.org/2000/svg">
<path fill-rule="evenodd" clip-rule="evenodd" d="M18.4997 37C18.3157 37 18.1327 37 17.9497 36.991L21.7307 26.6H26.9307C27.9115 26.5525 28.778 25.9462 29.1587 25.041L33.2587 13.774C33.633 13.0101 33.5629 12.1032 33.0756 11.4059C32.5883 10.7086 31.7607 10.331 30.9147 10.42H23.6997L17.6437 27.063L14.2047 36.5C6.0068 34.5413 0.168275 27.2902 0.00356929 18.8632C-0.161136 10.4362 5.3896 2.96255 13.5047 0.684993L9.96169 10.422L4.07169 26.6H7.99169L12.9997 12.852H15.9467L10.9387 26.6H14.8577L19.5257 13.772C19.8989 13.0077 19.8279 12.1011 19.3404 11.4041C18.8529 10.7071 18.0256 10.3296 17.1797 10.418H13.8797L17.6637 0.0179929C17.9397 0.00599292 18.2167 -0.00100708 18.4957 -0.00100708C28.713 -0.00100708 36.9957 8.28172 36.9957 18.499C36.9957 28.7163 28.713 36.999 18.4957 36.999M29.6887 12.841H26.7437L22.6177 24.16H25.5637L29.6887 12.841Z" fill="#1A9BDB"/>
<path d="M55.7998 22.94H49.8398L48.7598 26H46.3198L51.5198 12.1H54.1398L59.3198 26H56.8798L55.7998 22.94ZM55.1598 21.18L52.8198 14.58L50.4798 21.18H55.1598Z" fill="#1A9BDB"/>
<path d="M64.3826 14.84C65.676 14.84 66.7093 15.1733 67.4826 15.84C68.2693 16.4933 68.7493 17.3733 68.9226 18.48H66.7626C66.6693 17.88 66.4093 17.4 65.9826 17.04C65.5693 16.6667 65.016 16.48 64.3226 16.48C63.7493 16.48 63.3026 16.62 62.9826 16.9C62.676 17.1667 62.5226 17.5333 62.5226 18C62.5226 18.3467 62.636 18.6267 62.8626 18.84C63.0893 19.0533 63.3693 19.22 63.7026 19.34C64.0493 19.46 64.536 19.5933 65.1626 19.74C65.9893 19.9267 66.656 20.12 67.1626 20.32C67.6826 20.52 68.1226 20.84 68.4826 21.28C68.856 21.7067 69.0426 22.2933 69.0426 23.04C69.0426 23.96 68.6893 24.7067 67.9826 25.28C67.2893 25.8533 66.3493 26.14 65.1626 26.14C63.7893 26.14 62.676 25.82 61.8226 25.18C60.9826 24.54 60.476 23.6467 60.3026 22.5H62.5226C62.5893 23.1 62.856 23.5867 63.3226 23.96C63.7893 24.3333 64.4026 24.52 65.1626 24.52C65.7093 24.52 66.136 24.38 66.4426 24.1C66.7626 23.8067 66.9226 23.44 66.9226 23C66.9226 22.6133 66.8026 22.3067 66.5626 22.08C66.3226 21.8533 66.0226 21.68 65.6626 21.56C65.3026 21.4267 64.8093 21.2933 64.1826 21.16C63.3826 20.9733 62.7293 20.7867 62.2226 20.6C61.7293 20.4133 61.3026 20.1133 60.9426 19.7C60.596 19.2733 60.4226 18.7 60.4226 17.98C60.4226 17.0467 60.7693 16.2933 61.4626 15.72C62.1693 15.1333 63.1426 14.84 64.3826 14.84Z" fill="#1A9BDB"/>
<path d="M74.699 14.84C75.9924 14.84 77.0257 15.1733 77.799 15.84C78.5857 16.4933 79.0657 17.3733 79.239 18.48H77.079C76.9857 17.88 76.7257 17.4 76.299 17.04C75.8857 16.6667 75.3324 16.48 74.639 16.48C74.0657 16.48 73.619 16.62 73.299 16.9C72.9924 17.1667 72.839 17.5333 72.839 18C72.839 18.3467 72.9524 18.6267 73.179 18.84C73.4057 19.0533 73.6857 19.22 74.019 19.34C74.3657 19.46 74.8524 19.5933 75.479 19.74C76.3057 19.9267 76.9724 20.12 77.479 20.32C77.999 20.52 78.439 20.84 78.799 21.28C79.1724 21.7067 79.359 22.2933 79.359 23.04C79.359 23.96 79.0057 24.7067 78.299 25.28C77.6057 25.8533 76.6657 26.14 75.479 26.14C74.1057 26.14 72.9924 25.82 72.139 25.18C71.299 24.54 70.7924 23.6467 70.619 22.5H72.839C72.9057 23.1 73.1724 23.5867 73.639 23.96C74.1057 24.3333 74.719 24.52 75.479 24.52C76.0257 24.52 76.4524 24.38 76.759 24.1C77.079 23.8067 77.239 23.44 77.239 23C77.239 22.6133 77.119 22.3067 76.879 22.08C76.639 21.8533 76.339 21.68 75.979 21.56C75.619 21.4267 75.1257 21.2933 74.499 21.16C73.699 20.9733 73.0457 20.7867 72.539 20.6C72.0457 20.4133 71.619 20.1133 71.259 19.7C70.9124 19.2733 70.739 18.7 70.739 17.98C70.739 17.0467 71.0857 16.2933 71.779 15.72C72.4857 15.1333 73.459 14.84 74.699 14.84Z" fill="#1A9BDB"/>
<path d="M81.0755 11.78C81.0755 11.3933 81.2088 11.0733 81.4754 10.82C81.7421 10.5667 82.0954 10.44 82.5354 10.44C82.9755 10.44 83.3288 10.5667 83.5955 10.82C83.8755 11.0733 84.0154 11.3933 84.0154 11.78C84.0154 12.1667 83.8755 12.48 83.5955 12.72C83.3288 12.96 82.9755 13.08 82.5354 13.08C82.0954 13.08 81.7421 12.96 81.4754 12.72C81.2088 12.48 81.0755 12.1667 81.0755 11.78ZM83.6754 14.98V26H81.3955V14.98H83.6754Z" fill="#1A9BDB"/>
<path d="M89.8045 14.84C91.0978 14.84 92.1312 15.1733 92.9045 15.84C93.6912 16.4933 94.1712 17.3733 94.3445 18.48H92.1845C92.0912 17.88 91.8312 17.4 91.4045 17.04C90.9912 16.6667 90.4378 16.48 89.7445 16.48C89.1712 16.48 88.7245 16.62 88.4045 16.9C88.0978 17.1667 87.9445 17.5333 87.9445 18C87.9445 18.3467 88.0578 18.6267 88.2845 18.84C88.5112 19.0533 88.7912 19.22 89.1245 19.34C89.4712 19.46 89.9578 19.5933 90.5845 19.74C91.4112 19.9267 92.0778 20.12 92.5845 20.32C93.1045 20.52 93.5445 20.84 93.9045 21.28C94.2778 21.7067 94.4645 22.2933 94.4645 23.04C94.4645 23.96 94.1112 24.7067 93.4045 25.28C92.7112 25.8533 91.7712 26.14 90.5845 26.14C89.2112 26.14 88.0978 25.82 87.2445 25.18C86.4045 24.54 85.8978 23.6467 85.7245 22.5H87.9445C88.0112 23.1 88.2778 23.5867 88.7445 23.96C89.2112 24.3333 89.8245 24.52 90.5845 24.52C91.1312 24.52 91.5578 24.38 91.8645 24.1C92.1845 23.8067 92.3445 23.44 92.3445 23C92.3445 22.6133 92.2245 22.3067 91.9845 22.08C91.7445 21.8533 91.4445 21.68 91.0845 21.56C90.7245 21.4267 90.2312 21.2933 89.6045 21.16C88.8045 20.9733 88.1512 20.7867 87.6445 20.6C87.1512 20.4133 86.7245 20.1133 86.3645 19.7C86.0178 19.2733 85.8445 18.7 85.8445 17.98C85.8445 17.0467 86.1912 16.2933 86.8845 15.72C87.5912 15.1333 88.5645 14.84 89.8045 14.84Z" fill="#1A9BDB"/>
<path d="M102.041 24.02V26H100.641C99.4676 26 98.5743 25.72 97.9609 25.16C97.3609 24.5867 97.0609 23.64 97.0609 22.32V16.92H95.4809V14.98H97.0609V12.24H99.3609V14.98H102.021V16.92H99.3609V22.36C99.3609 22.9867 99.4743 23.42 99.7009 23.66C99.9409 23.9 100.354 24.02 100.941 24.02H102.041Z" fill="#1A9BDB"/>
<path d="M108.347 14.84C109.347 14.84 110.2 15.0867 110.907 15.58C111.613 16.0733 112.113 16.7267 112.407 17.54V14.98H114.687V26H112.407V23.44C112.113 24.2533 111.613 24.9067 110.907 25.4C110.2 25.8933 109.347 26.14 108.347 26.14C107.387 26.14 106.527 25.9133 105.767 25.46C105.02 25.0067 104.433 24.3533 104.007 23.5C103.58 22.6467 103.367 21.64 103.367 20.48C103.367 19.3333 103.58 18.3333 104.007 17.48C104.433 16.6267 105.02 15.9733 105.767 15.52C106.527 15.0667 107.387 14.84 108.347 14.84ZM109.047 16.84C108.033 16.84 107.22 17.1667 106.607 17.82C106.007 18.46 105.707 19.3467 105.707 20.48C105.707 21.6133 106.007 22.5067 106.607 23.16C107.22 23.8 108.033 24.12 109.047 24.12C109.687 24.12 110.26 23.9733 110.767 23.68C111.273 23.3733 111.673 22.9467 111.967 22.4C112.26 21.8533 112.407 21.2133 112.407 20.48C112.407 19.76 112.26 19.1267 111.967 18.58C111.673 18.02 111.273 17.5933 110.767 17.3C110.26 16.9933 109.687 16.84 109.047 16.84Z" fill="#1A9BDB"/>
<path d="M123.333 14.8C124.613 14.8 125.639 15.2133 126.413 16.04C127.186 16.8667 127.573 18.0467 127.573 19.58V26H125.293V19.82C125.293 18.8333 125.039 18.0733 124.533 17.54C124.026 16.9933 123.333 16.72 122.453 16.72C121.546 16.72 120.819 17.0133 120.273 17.6C119.726 18.1733 119.453 19.02 119.453 20.14V26H117.173V14.98H119.453V17.4C119.746 16.5733 120.239 15.9333 120.933 15.48C121.626 15.0267 122.426 14.8 123.333 14.8Z" fill="#1A9BDB"/>
<path d="M135.529 24.02V26H134.129C132.956 26 132.063 25.72 131.449 25.16C130.849 24.5867 130.549 23.64 130.549 22.32V16.92H128.969V14.98H130.549V12.24H132.849V14.98H135.509V16.92H132.849V22.36C132.849 22.9867 132.963 23.42 133.189 23.66C133.429 23.9 133.843 24.02 134.429 24.02H135.529Z" fill="#1A9BDB"/>
</svg>
