<svg xmlns="http://www.w3.org/2000/svg" width="10.5" height="10.53" viewBox="0 0 10.5 10.53">
  <defs>
    <style>
      .cls-1 {
        fill: #9fa2af;
        fill-rule: evenodd;
      }
    </style>
  </defs>
  <path id="X_button_" data-name="X button " class="cls-1" d="M14668.9,1747.46l8.2-8.18a1.1,1.1,0,0,1,1.6,0,1.073,1.073,0,0,1,0,1.63l-8.1,8.19a1.239,1.239,0,0,1-1.7,0A1.271,1.271,0,0,1,14668.9,1747.46Zm9.9,0-8.2-8.18a1.22,1.22,0,0,0-1.7,0,1.257,1.257,0,0,0,0,1.63l8.2,8.19a1.239,1.239,0,0,0,1.7,0A1.271,1.271,0,0,0,14678.8,1747.46Z" transform="translate(-14668.6 -1738.94)"/>
</svg>
